<svg width="133" height="40" viewBox="0 0 133 40" fill="none" xmlns="http://www.w3.org/2000/svg">
<path d="M118.228 7.76556L116.725 9.38465C114.398 6.71081 111.393 4.70941 108.025 3.58981C104.656 2.4702 101.047 2.27355 97.5762 3.02041C94.1051 3.76727 90.8991 5.43021 88.2936 7.83526C85.6881 10.2403 83.7789 13.2991 82.7656 16.6916H81.4817C82.2693 12.8154 84.148 9.24298 86.898 6.39218C89.6479 3.54139 93.1555 1.53015 97.0103 0.59378C100.865 -0.342592 104.908 -0.165381 108.665 1.10468C112.422 2.37474 115.739 4.68514 118.228 7.76556Z" fill="#EC802D"/>
<path d="M0.0820312 34.6233V16.6917H10.7291L10.607 19.3215H3.38224V24.4151H10.2502V27.0216H3.38224V34.6233H0.0820312Z" fill="#222222"/>
<path d="M20.6508 34.8807C18.2942 34.8807 16.5056 34.295 15.285 33.1236C14.0645 31.9521 13.455 30.3018 13.4565 28.1727V16.6917H16.7967V27.8919C16.7967 29.3847 17.101 30.4765 17.7097 31.1675C18.3185 31.8585 19.3199 32.2017 20.7142 32.197C22.0803 32.197 23.0708 31.8523 23.6858 31.1629C24.3008 30.4734 24.6075 29.3816 24.6059 27.8872V16.6917H27.9343V28.1961C27.9343 30.3112 27.3123 31.9537 26.0682 33.1236C24.8242 34.2934 23.0184 34.8791 20.6508 34.8807Z" fill="#222222"/>
<path d="M35.1309 34.6233V19.3379H29.8872V16.6917H43.689V19.3379H38.4711V34.614L35.1309 34.6233Z" fill="#222222"/>
<path d="M52.8267 34.8807C50.467 34.8807 48.6776 34.295 47.4586 33.1236C46.2396 31.9521 45.6309 30.3018 45.6324 28.1727V16.6917H48.9726V27.8919C48.9726 29.3847 49.2777 30.4765 49.888 31.1675C50.4983 31.8585 51.499 32.2017 52.8901 32.197C54.2562 32.197 55.2467 31.8523 55.8617 31.1629C56.4767 30.4734 56.7834 29.3816 56.7818 27.8872V16.6917H60.1102V28.1961C60.1102 30.3112 59.4882 31.9537 58.2441 33.1236C57.0001 34.2934 55.1943 34.8791 52.8267 34.8807Z" fill="#222222"/>
<path d="M63.7437 34.6234V16.6426H70.4121C71.2018 16.6358 71.9911 16.6765 72.7758 16.7642C73.425 16.8425 74.0634 16.9924 74.6794 17.2111C75.2268 17.3921 75.7277 17.6909 76.1464 18.0862C76.5445 18.4947 76.8467 18.9861 77.0313 19.5251C77.2615 20.2029 77.3711 20.9155 77.3553 21.6309C77.3553 24.0127 76.2708 25.5795 74.102 26.3314C74.5433 26.829 75.091 27.7508 75.7451 29.0969L78.4233 34.6304H74.7827L72.6819 29.9509C71.8886 28.271 71.398 27.2758 71.2102 26.9654C71.0694 26.9654 70.607 26.9654 69.8206 26.9654L67.0345 26.9397V34.6608L63.7437 34.6234ZM70.7056 24.5368C71.9824 24.5368 72.8994 24.3106 73.4565 23.8583C74.0136 23.4059 74.2921 22.6791 74.2921 21.6777C74.2921 20.7956 74.0081 20.1475 73.4448 19.731C72.8814 19.3145 72.0153 19.104 70.8534 19.104H67.0345V24.5274H68.863L70.7056 24.5368Z" fill="#222222"/>
<path d="M84.1388 19.3215V23.9495H91.2134V26.591H84.1388V31.3875C81.7925 26.85 81.3004 21.583 82.7657 16.6917H91.7157L91.5795 19.3215H84.1388Z" fill="#EC802D"/>
<path d="M91.8519 31.9724L91.7416 34.6163H80.8129V16.6917H81.4818C80.4247 21.8526 81.3745 27.2212 84.1389 31.7104V31.9724H84.3102C84.6459 32.5012 85.0144 33.0206 85.3994 33.526L85.7374 33.9589C85.2736 33.3214 84.8465 32.6581 84.4581 31.9724H91.8519Z" fill="#222222"/>
<path d="M122.842 20.4118C122.06 19.2092 121.44 18.2491 120.983 17.5316C121.491 19.5569 121.673 21.6498 121.521 23.7319L122.401 25.1006C122.726 23.5595 122.874 21.9864 122.842 20.4118ZM119.293 16.6917H116.906V32.8054C118.452 30.5811 119.482 28.0421 119.922 25.372C120.147 24.1265 120.226 22.8593 120.157 21.5957C120.169 19.7076 119.84 18.5096 119.293 16.6917ZM117.279 34.6233H117.61C118.481 33.645 119.257 32.5867 119.927 31.4624V30.2293C119.241 31.8031 118.351 33.2804 117.279 34.6233ZM119.418 34.6233H119.927V33.9612C119.765 34.1858 119.594 34.4057 119.418 34.6233ZM129.088 16.6917V25.7628C129.088 25.8673 129.117 27.3195 129.173 30.1194L128.541 29.1648C128.241 28.7202 128.03 28.4043 127.908 28.2172L124.333 22.7094L124.194 22.4965C124.088 23.9287 123.841 25.3471 123.457 26.7314L128.534 34.6187H132.121V16.6917H129.088Z" fill="#222222"/>
<path d="M122.192 4.8877C121.272 6.39916 120.353 7.90985 119.434 9.41975C119.035 10.0702 118.638 10.7206 118.242 11.3711C113.169 19.6958 108.083 28.0409 102.985 36.4062C99.6799 29.4291 96.4008 22.5129 93.1921 15.744C94.7577 17.2578 96.4172 18.8652 98.0767 20.475L103.097 25.3439L117.284 10.0772L118.765 8.4862C119.884 7.27578 121.006 6.06692 122.131 4.85962L122.192 4.8877Z" fill="#222222"/>
<path d="M102.942 15.2528C102.296 15.256 101.666 15.45 101.13 15.8103C100.594 16.1706 100.178 16.6811 99.933 17.2772C99.6881 17.8733 99.626 18.5283 99.7544 19.1596C99.8828 19.7908 100.196 20.37 100.654 20.824C101.113 21.278 101.696 21.5864 102.33 21.7103C102.964 21.8343 103.621 21.7681 104.217 21.5202C104.814 21.2723 105.323 20.8539 105.681 20.3176C106.039 19.7814 106.23 19.1515 106.229 18.5073C106.229 18.078 106.145 17.6528 105.979 17.2563C105.814 16.8597 105.572 16.4998 105.266 16.1972C104.961 15.8945 104.598 15.6553 104.199 15.4932C103.8 15.3311 103.373 15.2494 102.942 15.2528Z" fill="#EC802D"/>
<path d="M122.401 25.1006C121.668 28.6382 120.016 31.9219 117.61 34.6233H117.279C119.785 31.4792 121.27 27.6485 121.536 23.6417C121.802 19.635 120.836 15.6427 118.768 12.197L119.941 10.2527C122.585 14.7248 123.458 20.0201 122.389 25.1006H122.401Z" fill="#4D97D6"/>
<path d="M122.401 25.1006C121.668 28.6382 120.016 31.9219 117.61 34.6233H117.279C119.785 31.4792 121.27 27.6485 121.536 23.6417C121.802 19.635 120.836 15.6427 118.768 12.197L119.941 10.2527C122.585 14.7248 123.458 20.0201 122.389 25.1006H122.401Z" fill="#EC802D"/>
</svg>
